<?xml version="1.0" encoding="UTF-8"?>
<svg xmlns="http://www.w3.org/2000/svg" xmlns:xlink="http://www.w3.org/1999/xlink" width="50pt" height="50pt" viewBox="0 0 50 50" version="1.1">
<g id="surface1">
<path style=" stroke:none;fill-rule:nonzero;fill:rgb(0%,0%,0%);fill-opacity:1;" d="M 32.578125 19.519531 C 28.160156 19.519531 23.679688 17.871094 23.679688 14.730469 C 23.679688 11.589844 28.160156 9.941406 32.578125 9.941406 C 37 9.941406 41.480469 11.589844 41.480469 14.730469 C 41.480469 17.871094 37 19.519531 32.578125 19.519531 Z M 32.578125 12.679688 C 28.578125 12.679688 26.421875 14.140625 26.421875 14.730469 C 26.421875 15.328125 28.578125 16.78125 32.578125 16.78125 C 36.578125 16.78125 38.738281 15.320312 38.738281 14.730469 C 38.738281 14.128906 36.578125 12.679688 32.578125 12.679688 Z M 32.578125 12.679688 "/>
<path style=" stroke:none;fill-rule:nonzero;fill:rgb(0%,0%,0%);fill-opacity:1;" d="M 32.578125 25 C 28.160156 25 23.679688 23.351562 23.679688 20.210938 L 23.679688 14.730469 L 26.421875 14.730469 L 26.421875 20.210938 C 26.421875 20.808594 28.578125 22.261719 32.578125 22.261719 C 36.578125 22.261719 38.738281 20.800781 38.738281 20.210938 L 38.738281 14.730469 L 41.480469 14.730469 L 41.480469 20.210938 C 41.480469 23.351562 37 25 32.578125 25 Z M 32.578125 25 "/>
<path style=" stroke:none;fill-rule:nonzero;fill:rgb(0%,0%,0%);fill-opacity:1;" d="M 32.578125 30.46875 C 28.160156 30.46875 23.679688 28.820312 23.679688 25.679688 L 23.679688 20.199219 L 26.421875 20.199219 L 26.421875 25.679688 C 26.421875 26.28125 28.578125 27.730469 32.578125 27.730469 C 36.578125 27.730469 38.738281 26.269531 38.738281 25.679688 L 38.738281 20.199219 L 41.480469 20.199219 L 41.480469 25.679688 C 41.480469 28.828125 37 30.46875 32.578125 30.46875 Z M 32.578125 30.46875 "/>
<path style=" stroke:none;fill-rule:nonzero;fill:rgb(0%,0%,0%);fill-opacity:1;" d="M 32.578125 35.949219 C 28.160156 35.949219 23.679688 34.300781 23.679688 31.160156 L 23.679688 25.679688 L 26.421875 25.679688 L 26.421875 31.160156 C 26.421875 31.761719 28.578125 33.210938 32.578125 33.210938 C 36.578125 33.210938 38.738281 31.75 38.738281 31.160156 L 38.738281 25.679688 L 41.480469 25.679688 L 41.480469 31.160156 C 41.480469 34.300781 37 35.949219 32.578125 35.949219 Z M 32.578125 35.949219 "/>
<path style=" stroke:none;fill-rule:nonzero;fill:rgb(0%,0%,0%);fill-opacity:1;" d="M 17.519531 29.101562 C 13.101562 29.101562 8.621094 27.449219 8.621094 24.308594 C 8.621094 21.171875 13.101562 19.519531 17.519531 19.519531 C 21.941406 19.519531 26.421875 21.171875 26.421875 24.308594 C 26.421875 27.449219 21.941406 29.101562 17.519531 29.101562 Z M 17.519531 22.261719 C 13.519531 22.261719 11.359375 23.71875 11.359375 24.308594 C 11.359375 24.910156 13.519531 26.359375 17.519531 26.359375 C 21.519531 26.359375 23.679688 24.898438 23.679688 24.308594 C 23.679688 23.71875 21.519531 22.261719 17.519531 22.261719 Z M 17.519531 22.261719 "/>
<path style=" stroke:none;fill-rule:nonzero;fill:rgb(0%,0%,0%);fill-opacity:1;" d="M 17.519531 34.578125 C 13.101562 34.578125 8.621094 32.929688 8.621094 29.789062 L 8.621094 24.308594 L 11.359375 24.308594 L 11.359375 29.789062 C 11.359375 30.390625 13.519531 31.839844 17.519531 31.839844 C 21.519531 31.839844 23.679688 30.378906 23.679688 29.789062 L 23.679688 24.308594 L 26.421875 24.308594 L 26.421875 29.789062 C 26.421875 32.929688 21.941406 34.578125 17.519531 34.578125 Z M 17.519531 34.578125 "/>
<path style=" stroke:none;fill-rule:nonzero;fill:rgb(0%,0%,0%);fill-opacity:1;" d="M 17.519531 40.050781 C 13.101562 40.050781 8.621094 38.398438 8.621094 35.261719 L 8.621094 29.78125 L 11.359375 29.78125 L 11.359375 35.261719 C 11.359375 35.859375 13.519531 37.308594 17.519531 37.308594 C 21.519531 37.308594 23.679688 35.851562 23.679688 35.261719 L 23.679688 29.78125 L 26.421875 29.78125 L 26.421875 35.261719 C 26.421875 38.410156 21.941406 40.050781 17.519531 40.050781 Z M 17.519531 40.050781 "/>
</g>
</svg>
