
<?xml version="1.0" encoding="UTF-8"?>
<svg xmlns="http://www.w3.org/2000/svg" xmlns:xlink="http://www.w3.org/1999/xlink" width="50pt" height="50pt" viewBox="0 0 50 50" version="1.1">
<g id="surface1">
    <path d="M 3.109375 25.253906 C 3.109375 25.253906 4.046875 26.074219 4.496094 27.328125 C 4.941406 28.582031 6.496094 29.15625 6.496094 29.15625 C 6.496094 29.15625 6.105469 28.398438 6.21875 27.113281 C 6.332031 25.828125 6.734375 24.824219 7.253906 23.933594 C 7.777344 23.042969 8.105469 24.429688 9.089844 25.382812 C 10.542969 26.789062 11.574219 27.285156 11.574219 27.285156 C 11.574219 27.285156 11.394531 26.597656 11.429688 26.011719 C 11.492188 25.019531 11.742188 24.496094 11.90625 24.484375 C 12.289062 24.460938 12.289062 24.8125 12.960938 25.371094 C 13.554688 25.867188 14.140625 25.925781 14.140625 25.925781 C 14.140625 25.925781 14.199219 24.363281 14.5625 23.902344 C 14.925781 23.441406 15.058594 24.039062 15.269531 24.335938 C 15.527344 24.695312 15.832031 24.886719 15.832031 24.886719 C 15.832031 24.886719 16.515625 24.746094 17.082031 24.433594 C 18.089844 23.875 18.488281 23.261719 18.488281 23.261719 C 18.488281 23.261719 18.386719 24.199219 17.667969 24.996094 C 16.949219 25.792969 15.785156 26.148438 15.785156 26.148438 C 15.785156 26.148438 15.816406 27.289062 15.246094 27.550781 C 14.28125 27.996094 12.835938 26.625 12.835938 26.625 C 12.835938 26.625 13.246094 28.539062 11.964844 28.59375 C 10.707031 28.648438 7.835938 25.933594 7.835938 25.933594 C 7.835938 25.933594 7.394531 28.023438 8.746094 30.890625 C 10.097656 33.757812 13.941406 34.671875 13.941406 34.671875 C 13.941406 34.671875 13.882812 33.929688 14.539062 32.933594 C 15.199219 31.933594 16.21875 31.574219 17.300781 31.414062 C 18.378906 31.253906 19.472656 30.925781 20.289062 30.273438 C 21.109375 29.621094 22.074219 29.003906 24.453125 28.726562 C 26.832031 28.445312 28.992188 31.34375 28.992188 31.34375 C 28.992188 31.34375 28.695312 29.046875 26.128906 27.792969 C 23.558594 26.539062 20.535156 26.933594 20.535156 26.933594 C 20.535156 26.933594 21.367188 26.285156 22.777344 26.109375 C 24.191406 25.9375 25.398438 26.226562 25.398438 26.226562 C 25.398438 26.226562 24.628906 25.648438 24.328125 24.652344 C 24.03125 23.652344 24.175781 22.625 24.175781 22.625 C 24.175781 22.625 25.792969 25.523438 28.402344 26.191406 C 31.007812 26.859375 33.15625 27.773438 34.917969 28.980469 C 36.675781 30.183594 37.824219 32.078125 37.824219 32.078125 C 37.824219 32.078125 38.050781 30.378906 36.429688 28.238281 C 34.808594 26.101562 32.167969 24.863281 29.832031 23.976562 C 27.496094 23.089844 26.570312 21.378906 26.570312 21.378906 C 26.570312 21.378906 28.398438 22.339844 31.320312 21.632812 C 34.246094 20.925781 35.429688 18.375 35.429688 18.375 C 35.429688 18.375 33.425781 19.644531 30.851562 19.527344 C 28.28125 19.410156 26.601562 18.445312 26.601562 18.445312 C 26.601562 18.445312 31.199219 17.539062 33.417969 15.261719 C 35.640625 12.984375 35.714844 11.390625 37.3125 10.117188 C 38.914062 8.839844 41.597656 8.941406 41.597656 8.941406 C 41.597656 8.941406 38.652344 7.804688 35.953125 9.039062 C 33.25 10.273438 31.789062 12.992188 29.714844 13.667969 C 27.640625 14.34375 26.292969 12.769531 26.917969 11.484375 C 27.539062 10.199219 30.128906 10.070312 30.128906 10.070312 C 30.128906 10.070312 27.246094 9.136719 25.441406 10.660156 C 23.640625 12.1875 23.46875 14.144531 23.46875 14.144531 L 21.640625 14.472656 C 21.640625 14.472656 21.890625 13.003906 22.945312 11.621094 C 23.996094 10.238281 25.09375 9.878906 26.621094 7.519531 C 28.144531 5.15625 27.582031 3.183594 27.582031 3.183594 C 27.582031 3.183594 27.375 4.386719 26.261719 5.597656 C 25.144531 6.808594 23.097656 7.621094 19.980469 10.046875 C 16.863281 12.472656 16.519531 14.960938 16.375 15.980469 C 16.230469 17 14.992188 17.039062 14.203125 17.28125 C 13.410156 17.519531 12.429688 17.976562 12.1875 18.953125 C 11.949219 19.929688 10.835938 20.039062 9.722656 19.769531 C 8.609375 19.5 7.035156 18.851562 6.242188 18.558594 C 5.453125 18.261719 4.542969 17.90625 3.628906 18.363281 C 2.710938 18.824219 3.234375 20.851562 3.585938 22.175781 C 3.9375 23.5 3.109375 25.253906 3.109375 25.253906 Z M 13.511719 20.445312 C 13.511719 20.445312 14.433594 19.910156 15.917969 19.417969 C 17.304688 18.957031 18.273438 17.984375 18.398438 17.855469 C 18.40625 17.847656 18.410156 17.84375 18.410156 17.84375 C 18.410156 17.84375 18.40625 17.847656 18.398438 17.855469 C 18.261719 17.996094 17.136719 19.195312 17.097656 19.765625 C 17.054688 20.371094 17.582031 20.601562 17.582031 20.601562 C 17.582031 20.601562 16.34375 20.363281 15.265625 20.324219 C 14.1875 20.28125 13.511719 20.445312 13.511719 20.445312 Z M 13.511719 20.445312 "/>
    <path d="M 28.628906 43.539062 C 29.003906 40.9375 30.953125 39.035156 31.992188 38.242188 C 33.03125 37.445312 36.046875 36.4375 37.390625 38.371094 C 39.445312 41.332031 36.917969 44.5 36.917969 44.5 C 36.917969 44.5 40.433594 43.417969 41.867188 38.996094 C 43.304688 34.570312 42.070312 32.515625 42.203125 29.898438 C 42.332031 27.285156 44.355469 27.210938 44.703125 29.996094 C 45.050781 32.777344 44.386719 35.296875 44.386719 35.296875 C 44.386719 35.296875 46.980469 33.308594 46.867188 29.242188 C 46.757812 25.179688 44.40625 22.707031 41.597656 20.664062 C 38.789062 18.625 41.152344 18.824219 43.128906 19.898438 C 45.792969 21.347656 46.554688 23.613281 46.554688 23.613281 C 46.554688 23.613281 47.09375 21.890625 46.390625 19.8125 C 45.683594 17.738281 43.851562 16.320312 42.097656 15.78125 C 40.339844 15.238281 41.371094 14.539062 43.101562 14.375 C 44.835938 14.214844 46.683594 14.816406 46.683594 14.816406 C 46.683594 14.816406 44.273438 12.710938 40.980469 12.703125 C 37.691406 12.691406 36.453125 14.066406 34.363281 16.019531 C 32.417969 17.835938 29.8125 18.578125 29.8125 18.578125 C 29.8125 18.578125 31.421875 18.734375 33.296875 18.292969 C 35.171875 17.851562 37.34375 16.625 37.34375 16.625 C 37.34375 16.625 37.3125 18.160156 35.109375 20.503906 C 32.90625 22.851562 29.699219 22.691406 29.699219 22.691406 C 29.699219 22.691406 30.582031 23.351562 32.980469 24.296875 C 35.457031 25.269531 37.6875 27.148438 38.398438 29.433594 C 39.191406 31.960938 38.214844 33.90625 38.214844 33.90625 C 38.214844 33.90625 36.753906 31.554688 33.628906 29.5 C 30.5 27.445312 26.496094 26.726562 26.496094 26.726562 C 26.496094 26.726562 27.183594 27.09375 27.953125 27.710938 C 28.71875 28.328125 29.746094 29.484375 30.21875 30.488281 C 30.6875 31.496094 30.890625 32.832031 29.761719 32.789062 C 28.636719 32.746094 28.054688 31.886719 26.652344 31.226562 C 25.246094 30.566406 23.832031 30.777344 23.832031 30.777344 C 23.832031 30.777344 25.804688 32.105469 24.996094 34.722656 C 24.191406 37.339844 20.90625 38.214844 18.773438 38.898438 C 15.859375 39.832031 14.925781 41.199219 14.925781 41.199219 C 14.925781 41.199219 16.640625 40.222656 19.226562 40.1875 C 21.199219 40.160156 22.808594 39.867188 24.304688 39.203125 C 26.210938 38.355469 26.300781 38.804688 25.046875 39.535156 C 23.789062 40.265625 21.496094 41.394531 18.5625 41.394531 C 15.628906 41.394531 6.382812 46.8125 6.382812 46.8125 C 6.382812 46.8125 16.726562 43.109375 21.511719 44.066406 C 21.511719 44.066406 28.648438 46.269531 28.628906 43.539062 Z M 36.328125 24.683594 C 35.257812 23.660156 34.9375 22.488281 35.613281 22.066406 C 36.289062 21.644531 37.703125 22.128906 38.777344 23.152344 C 39.847656 24.175781 40.167969 25.347656 39.492188 25.769531 C 38.816406 26.195312 37.398438 25.707031 36.328125 24.683594 Z M 36.328125 24.683594 "/>
    <path d="M 36.949219 41.832031 C 36.949219 41.832031 37.722656 38.398438 35.15625 38.253906 C 33.648438 38.167969 31.824219 39.523438 30.8125 41.363281 C 29.800781 43.203125 29.769531 46.390625 31.429688 46.660156 C 33.105469 46.933594 34.328125 45.261719 34.328125 45.261719 C 34.328125 45.261719 32.175781 45.789062 32.128906 43.796875 C 32.082031 41.800781 33.644531 40.359375 35.296875 40.449219 C 36.949219 40.542969 36.949219 41.832031 36.949219 41.832031 Z M 36.949219 41.832031 "/>
</g>
</svg>
