<?xml version="1.0" encoding="UTF-8"?>
<svg xmlns="http://www.w3.org/2000/svg" xmlns:xlink="http://www.w3.org/1999/xlink" width="50pt" height="50pt" viewBox="0 0 50 50" version="1.1">
<g id="surface1">
<path style=" stroke:none;fill-rule:nonzero;fill:rgb(0%,0%,0%);fill-opacity:1;" d="M 39.722656 41.71875 C 39.957031 41.269531 40.082031 40.773438 40.085938 40.265625 C 40.085938 38.476562 38.636719 37.027344 36.847656 37.027344 L 35.722656 37.027344 L 31.550781 19.574219 C 33.324219 19.476562 34.6875 17.960938 34.589844 16.183594 C 34.511719 14.757812 33.5 13.554688 32.113281 13.226562 L 35.738281 8.273438 C 35.769531 8.230469 35.792969 8.183594 35.8125 8.136719 L 35.8125 8.074219 C 35.851562 7.980469 35.878906 7.882812 35.886719 7.78125 L 35.886719 0.90625 C 35.886719 0.40625 35.480469 0 34.976562 0 L 31.523438 0 C 31.019531 0 30.613281 0.40625 30.613281 0.90625 L 30.613281 2.722656 L 28.21875 2.722656 L 28.21875 0.90625 C 28.21875 0.40625 27.8125 0 27.3125 0 L 23.1875 0 C 22.683594 0 22.277344 0.40625 22.277344 0.90625 L 22.277344 2.722656 L 19.902344 2.722656 L 19.902344 0.90625 C 19.902344 0.40625 19.496094 0 18.996094 0 L 15.511719 0 C 15.011719 0 14.605469 0.40625 14.605469 0.90625 L 14.605469 7.730469 C 14.609375 7.835938 14.628906 7.9375 14.667969 8.035156 L 14.667969 8.101562 C 14.6875 8.148438 14.710938 8.195312 14.742188 8.238281 L 18.367188 13.1875 C 16.636719 13.597656 15.566406 15.332031 15.972656 17.0625 C 16.300781 18.453125 17.503906 19.460938 18.929688 19.539062 L 14.757812 37.011719 L 13.671875 37.011719 C 11.882812 37.011719 10.433594 38.460938 10.433594 40.25 C 10.433594 40.742188 10.554688 41.230469 10.777344 41.671875 L 10.59375 41.671875 C 9.59375 41.671875 8.78125 42.484375 8.78125 43.488281 L 8.78125 48.1875 C 8.78125 49.1875 9.59375 50 10.59375 50 L 39.40625 50 C 40.40625 50 41.21875 49.1875 41.21875 48.1875 L 41.21875 43.515625 C 41.222656 42.632812 40.59375 41.871094 39.722656 41.71875 Z M 16.417969 1.804688 L 18.085938 1.804688 L 18.085938 3.621094 C 18.085938 4.121094 18.492188 4.527344 18.996094 4.527344 L 23.1875 4.527344 C 23.6875 4.527344 24.09375 4.121094 24.09375 3.621094 L 24.09375 1.804688 L 26.386719 1.804688 L 26.386719 3.621094 C 26.386719 4.121094 26.792969 4.527344 27.296875 4.527344 L 31.496094 4.527344 C 31.996094 4.527344 32.402344 4.121094 32.402344 3.621094 L 32.402344 1.804688 L 34.070312 1.804688 L 34.070312 6.8125 L 16.417969 6.8125 Z M 17.324219 8.625 L 33.21875 8.625 L 29.945312 13.097656 L 20.574219 13.097656 Z M 17.742188 16.363281 C 17.742188 16.359375 17.742188 16.351562 17.742188 16.347656 L 17.796875 16.335938 C 17.796875 15.550781 18.433594 14.914062 19.222656 14.914062 L 31.351562 14.914062 C 32.136719 14.914062 32.773438 15.550781 32.773438 16.335938 C 32.777344 17.121094 32.136719 17.761719 31.351562 17.761719 L 19.195312 17.761719 C 18.40625 17.777344 17.757812 17.152344 17.742188 16.363281 Z M 20.828125 19.574219 L 29.691406 19.574219 L 33.851562 37.027344 L 16.617188 37.027344 Z M 13.441406 38.84375 C 13.519531 38.835938 13.59375 38.835938 13.671875 38.84375 L 36.847656 38.84375 C 37.632812 38.78125 38.316406 39.363281 38.378906 40.148438 C 38.441406 40.933594 37.859375 41.617188 37.074219 41.683594 C 37 41.6875 36.921875 41.6875 36.847656 41.683594 L 13.671875 41.683594 C 12.886719 41.746094 12.199219 41.160156 12.136719 40.375 C 12.074219 39.589844 12.660156 38.90625 13.441406 38.84375 Z M 39.414062 48.214844 L 10.585938 48.214844 L 10.585938 43.503906 L 39.414062 43.503906 Z M 39.414062 48.214844 "/>
</g>
</svg>
